<?xml version="1.0" standalone="no"?>
<!DOCTYPE svg PUBLIC "-//W3C//DTD SVG 20010904//EN"
 "http://www.w3.org/TR/2001/REC-SVG-20010904/DTD/svg10.dtd">
<svg version="1.0" xmlns="http://www.w3.org/2000/svg"
 width="260.000000pt" height="260.000000pt" viewBox="0 0 260.000000 260.000000"
 preserveAspectRatio="xMidYMid meet">
<metadata>
Created by potrace 1.14, written by Peter Selinger 2001-2017
</metadata>
<g transform="translate(0.000000,260.000000) scale(0.100000,-0.100000)"
fill="#000000" stroke="none">
<path d="M1153 2253 c-203 -171 -242 -206 -247 -228 -3 -13 -47 -58 -98 -102
-245 -206 -259 -232 -266 -485 -5 -180 6 -275 38 -338 27 -53 94 -116 146
-137 24 -10 44 -20 43 -23 0 -3 -47 -43 -104 -90 -63 -52 -108 -96 -114 -114
-14 -37 -14 -294 -1 -333 16 -46 45 -53 204 -53 l144 0 4 -70 c3 -56 8 -75 26
-93 21 -21 32 -22 195 -25 94 -2 186 -1 204 3 21 4 83 48 185 133 119 99 154
133 156 154 3 21 33 53 130 134 145 122 154 132 187 196 36 68 48 169 42 348
-5 169 -18 229 -62 286 -33 43 -116 98 -172 115 -24 7 -43 15 -43 19 0 3 42
41 94 83 52 43 97 85 100 93 11 29 6 332 -5 358 -16 35 -57 46 -170 46 l-99 0
0 68 c0 55 -4 73 -20 90 -20 21 -28 22 -225 22 l-205 0 -67 -57z"/>
</g>
</svg>
